<?xml version="1.0" standalone="no"?>
<!DOCTYPE svg PUBLIC "-//W3C//DTD SVG 20010904//EN"
 "http://www.w3.org/TR/2001/REC-SVG-20010904/DTD/svg10.dtd">
<svg version="1.0" xmlns="http://www.w3.org/2000/svg"
 width="700.000000pt" height="700.000000pt" viewBox="0 0 700.000000 700.000000"
 preserveAspectRatio="xMidYMid meet">
<metadata>
Created by potrace 1.11, written by Peter Selinger 2001-2013
</metadata>
<g transform="translate(0.000000,700.000000) scale(0.100000,-0.100000)"
fill="#000000" stroke="none">
<path d="M5558 6976 c-1 -2 -37 -6 -78 -10 -41 -3 -84 -8 -95 -10 -11 -2 -49
-7 -85 -11 -36 -3 -72 -8 -80 -10 -8 -2 -44 -7 -80 -10 -36 -4 -72 -8 -80 -10
-8 -1 -42 -6 -75 -9 -33 -4 -71 -8 -85 -11 -14 -2 -50 -6 -80 -9 -30 -3 -95
-10 -145 -16 -210 -23 -291 -28 -550 -37 -266 -8 -1847 -9 -1962 0 l-82 6 -20
-54 c-32 -85 -48 -167 -50 -257 -4 -157 35 -254 145 -364 120 -119 297 -189
503 -198 61 -2 96 -8 101 -16 5 -7 2 -33 -5 -57 -7 -23 -12 -43 -10 -43 2 0
-86 -346 -118 -465 -64 -233 -357 -1079 -479 -1380 l-24 -60 -130 -33 c-71
-18 -138 -35 -150 -37 -11 -3 -83 -22 -160 -44 -147 -42 -228 -73 -255 -97
-15 -14 -15 -18 4 -57 47 -99 127 -192 221 -256 47 -32 170 -94 205 -104 19
-5 19 -9 -20 -108 -21 -57 -43 -113 -48 -124 -9 -18 -67 -167 -198 -505 -24
-63 -48 -124 -53 -135 -5 -11 -79 -195 -163 -410 -205 -519 -406 -1000 -498
-1189 -10 -22 -19 -47 -19 -56 0 -19 99 -166 178 -265 182 -226 407 -387 637
-454 106 -31 107 -31 112 4 2 17 17 95 33 175 16 80 31 156 34 170 33 184 170
721 253 995 24 83 46 157 48 165 7 31 185 561 235 695 98 268 260 683 356 910
l42 100 44 6 c23 4 68 10 99 13 31 4 65 8 75 10 11 2 42 7 69 10 28 4 61 9 75
11 68 12 229 37 255 41 17 3 53 9 80 14 28 6 68 12 90 15 22 4 65 10 95 15 89
14 214 27 350 36 187 11 533 5 640 -11 14 -2 50 -7 80 -10 30 -3 67 -8 82 -11
23 -3 28 1 38 32 20 58 24 94 24 209 1 177 -21 263 -95 374 -63 94 -141 150
-269 192 -68 22 -92 24 -250 24 -158 0 -292 -7 -390 -20 -19 -2 -57 -7 -85
-10 -27 -4 -61 -8 -75 -10 -14 -2 -50 -7 -80 -10 -30 -3 -62 -7 -70 -10 -8 -2
-37 -6 -65 -10 -27 -3 -79 -10 -115 -16 -36 -6 -83 -13 -105 -15 -22 -3 -57
-9 -77 -14 -44 -9 -48 -25 61 213 17 37 31 69 31 71 0 4 23 54 101 224 16 34
29 64 29 66 0 3 13 33 29 68 16 35 95 209 176 388 170 376 353 752 419 861 45
75 47 77 94 83 26 3 58 8 72 10 14 2 46 7 71 10 25 4 57 8 70 11 79 12 407 50
519 60 138 12 180 14 340 21 307 12 743 9 885 -6 44 -5 106 -12 138 -16 31 -3
57 -3 57 1 0 14 -32 133 -56 210 -40 123 -136 311 -197 386 -56 67 -122 120
-192 154 -32 15 -66 19 -167 21 -69 2 -128 1 -130 0z"/>
</g>
</svg>
